<?xml version="1.0" encoding="UTF-8" standalone="no"?><!DOCTYPE svg PUBLIC "-//W3C//DTD SVG 1.1//EN" "http://www.w3.org/Graphics/SVG/1.1/DTD/svg11.dtd"><svg width="100%" height="100%" viewBox="0 0 1920 1080" version="1.1" xmlns="http://www.w3.org/2000/svg" xmlns:xlink="http://www.w3.org/1999/xlink" xml:space="preserve" xmlns:serif="http://www.serif.com/" style="fill-rule:evenodd;clip-rule:evenodd;stroke-linejoin:round;stroke-miterlimit:2;"><g transform="matrix(277.550825,0,0,277.550825,1605.595284,354.483169)"></g><text x="309.048px" y="354.483px" style="font-family:'BradleyHandITC', 'Bradley Hand ITC', cursive;font-size:277.551px;">CanIListen</text><g><path d="M1096.597,873.583l-5.619,17.791c-6.628,5.376 -11.979,9.266 -16.051,11.671c-7.027,4.168 -13.37,6.248 -19.029,6.241c-7.119,0.016 -13.315,-3.227 -18.588,-9.728c-3.205,-3.952 -5.481,-7.996 -6.829,-12.133c-1.106,-3.382 -1.665,-6.971 -1.677,-10.764c0.014,-1.807 0.244,-4.715 0.691,-8.723c-4.3,0.952 -7.492,1.348 -9.575,1.189c-4.603,-0.334 -8.43,-2.382 -11.48,-6.142c-2.74,-3.378 -4.01,-7.842 -3.81,-13.393c0.226,-6.365 2.65,-11.421 7.271,-15.169c2.071,-1.68 4.761,-2.858 8.07,-3.534c2.208,-0.47 5.24,-0.737 9.097,-0.801c-3.123,2.533 -6.158,5.338 -9.104,8.414c-3.799,3.979 -6.592,7.538 -8.378,10.678c-2.179,3.827 -2.532,6.649 -1.058,8.466c1.577,1.944 4.908,2.306 9.994,1.086c4.28,-1.041 8.625,-2.849 13.036,-5.422c1.791,-4.305 3.709,-8.291 5.754,-11.958c2.292,-4.078 4.893,-8.037 7.802,-11.875l4.04,9.085c-4.535,7.957 -7.713,13.81 -9.533,17.558c-3.653,7.612 -5.868,14.163 -6.645,19.653c-0.997,7.043 0.249,12.715 3.738,17.017c3.644,4.493 8.202,6.661 13.674,6.502c4.741,-0.147 10.338,-2.072 16.792,-5.774c5.12,-2.937 11.185,-7.249 18.196,-12.935c1.498,-1.215 2.983,-2.445 4.455,-3.692c1.472,-1.247 2.944,-2.493 4.416,-3.74l0.349,0.43Z" style="fill-rule:nonzero;"/><path d="M1100.125,826.344l-6.692,5.428c-2.167,1.758 -4.615,2.29 -7.343,1.597c-2.388,-0.599 -5.104,-2.173 -8.149,-4.723c-3.045,-2.549 -6.523,-5.909 -10.434,-10.081c-3.112,-3.446 -6.309,-6.981 -9.592,-10.605c-3.283,-3.624 -5.886,-6.281 -7.81,-7.969c-1.924,-1.688 -3.677,-2.921 -5.259,-3.699c-1.942,-0.961 -3.999,-1.511 -6.172,-1.65l-1.642,-14.042c4.344,2.816 8.93,6.678 13.756,11.587c3.007,3.056 9.683,10.637 20.03,22.743c5.174,5.207 8.949,8.168 11.325,8.883c1.978,0.615 3.493,0.496 4.544,-0.357l6.692,-5.428l6.746,8.317Z" style="fill-rule:nonzero;"/><path d="M1138.701,795.057l-4.971,4.032c-2.135,1.732 -4.929,3.205 -8.381,4.42c-3.996,1.392 -7.961,2.072 -11.896,2.041c-0.013,3.762 -0.628,6.863 -1.846,9.303c-1.217,2.44 -3.674,5.159 -7.371,8.157l-7.457,6.048l-6.746,-8.317l7.314,-5.932c2.9,-2.352 4.887,-5.178 5.96,-8.479c0.822,-2.569 1.11,-5.47 0.864,-8.705c-0.331,-4.381 0.082,-8.757 1.239,-13.129c1.05,-3.916 2.436,-6.995 4.158,-9.236c4.913,1.563 9.108,3.153 12.585,4.77c4.699,2.211 7.966,4.448 9.801,6.711l6.746,8.317Zm-13.135,-4.958c-1.913,-1.512 -4.024,-2.812 -6.332,-3.899c-1.948,-0.903 -4.173,-1.661 -6.676,-2.272c-1.219,1.623 -1.929,3.387 -2.127,5.291c-0.158,1.238 -0.069,3.041 0.267,5.41c2.155,0.312 4.677,0.116 7.566,-0.589c2.889,-0.705 5.347,-1.696 7.377,-2.972l-0.074,-0.97Z" style="fill-rule:nonzero;"/><path d="M1162.601,775.673l-27.247,22.098l-6.746,-8.317l23.757,-19.268c-3.05,-3.76 -5.822,-6.267 -8.317,-7.519c-1.717,-0.879 -4.817,-1.64 -9.301,-2.283l-2.591,-10.816c4.646,1.039 7.916,2.139 9.807,3.299c2.851,1.756 6.576,5.47 11.177,11.143l9.46,11.663Zm-38.591,-46.995l2.084,9.8l-11.096,2.343l-1.989,-9.878l11,-2.265Zm-7.293,13.285l1.959,9.743l-11.183,2.334l-1.854,-9.907l11.078,-2.17Z" style="fill-rule:nonzero;"/><path d="M1214.561,733.531l-3.681,2.985c-2.04,1.654 -4.018,2.797 -5.937,3.428c-1.918,0.631 -3.896,0.928 -5.934,0.89c-0.541,2.394 -1.215,4.234 -2.02,5.521c-1.16,1.892 -3.158,3.988 -5.994,6.288l-3.107,2.52c-1.657,1.344 -3.573,2.369 -5.747,3.076c-1.419,0.464 -3.314,0.865 -5.682,1.201c-0.599,2.388 -1.362,4.314 -2.287,5.778c-0.926,1.464 -2.823,3.359 -5.691,5.685l-9.226,7.482l-6.746,-8.317l9.226,-7.482c2.581,-2.094 4.249,-3.816 5.002,-5.166c1.254,-2.232 0.989,-4.447 -0.794,-6.646c-0.75,-0.924 -1.547,-1.81 -2.392,-2.656c-0.845,-0.847 -1.86,-1.74 -3.046,-2.681l-0.366,-4.458c3.27,2.208 5.735,3.749 7.394,4.622c2.907,1.499 5.443,2.347 7.611,2.544c2.629,0.245 4.963,-0.459 7.003,-2.114l3.203,-2.598c2.39,-1.938 3.861,-3.739 4.414,-5.403c0.603,-1.862 0.167,-3.702 -1.306,-5.518c-0.801,-0.988 -1.64,-1.892 -2.517,-2.713c-0.877,-0.821 -1.866,-1.682 -2.968,-2.585l-0.318,-4.496l4.648,3.679c3.729,2.839 6.771,4.44 9.125,4.803c2.066,0.332 4.023,-0.251 5.871,-1.75c0.86,-0.698 1.34,-1.523 1.44,-2.475c0.099,-0.952 -0.187,-1.843 -0.859,-2.671c-1.447,-1.785 -3.626,-3.135 -6.535,-4.051c-0.482,-0.138 -2.102,-0.54 -4.862,-1.207l-1.119,-7.73c2.909,0.916 5.184,1.897 6.825,2.944c2.459,1.598 5.148,4.198 8.069,7.799l9.305,11.472Z" style="fill-rule:nonzero;"/><path d="M1223.2,642.762l4.684,10.465l-3.945,0.901l3.624,4.272c3.463,4.27 6.282,8.852 8.455,13.746c2.388,5.354 4.051,11.216 4.991,17.586c3.02,1.249 5.286,2.316 6.798,3.203c2.361,1.413 4.382,3.155 6.062,5.227c0.956,1.179 1.739,2.209 2.347,3.089c0.608,0.88 1.253,1.969 1.935,3.265c-2.758,3.505 -5.882,7.029 -9.373,10.574c-3.491,3.545 -7.053,6.79 -10.686,9.737c-0.459,-0.631 -0.857,-1.154 -1.193,-1.568c-1.805,-2.551 -3.245,-5.108 -4.319,-7.67c3.065,-7.294 4.589,-14.763 4.569,-22.408c-5.642,-2.397 -9.684,-4.059 -12.126,-4.984c-2.666,-1.007 -6.979,-2.449 -12.938,-4.325c-2.099,-0.569 -3.867,-0.958 -5.304,-1.166c-1.956,-0.262 -3.237,-0.148 -3.843,0.343c-0.414,0.336 -0.906,1.131 -1.474,2.384c-0.303,0.668 -0.63,1.145 -0.98,1.429c-0.701,0.569 -2.369,0.759 -5.004,0.572c-2.315,-0.183 -4.925,-0.601 -7.833,-1.255c-2.336,-0.535 -4.106,-1.121 -5.308,-1.757c-1.203,-0.636 -2.36,-1.639 -3.471,-3.009c-1.602,-1.976 -2.729,-3.625 -3.378,-4.947c-0.987,-1.999 -1.019,-3.373 -0.095,-4.123c1.307,-1.06 4.211,-1.355 8.712,-0.885c4.008,0.447 8.84,1.389 14.495,2.825c5.001,1.28 10.176,2.841 15.526,4.683l11.234,3.885c3.347,1.195 6.984,2.683 10.911,4.464c-1.354,-6.034 -3.416,-11.573 -6.186,-16.616c-2.4,-4.393 -6.004,-9.553 -10.812,-15.48l-4.004,0.632c-1.706,-2.103 -3.067,-4.156 -4.083,-6.158c-1.016,-2.002 -1.758,-3.976 -2.226,-5.921l1.332,-0.605c1.239,1.267 2.895,1.746 4.97,1.437c1.127,-0.174 2.52,-0.459 4.18,-0.855c1.66,-0.396 2.912,-0.724 3.757,-0.986Zm25.294,56.591c-0.569,-0.701 -1.292,-1.316 -2.17,-1.845c-0.878,-0.529 -2.477,-1.279 -4.797,-2.251c0.052,2.018 -0.211,4.609 -0.789,7.772c-0.578,3.163 -1.326,6.068 -2.244,8.714c3.76,-3.05 6.347,-5.332 7.759,-6.848c2.399,-2.579 3.146,-4.427 2.241,-5.542Z" style="fill-rule:nonzero;"/><path d="M1274.083,665.049c2.068,2.549 3.609,5.394 4.623,8.533c0.556,1.662 1.161,4.526 1.817,8.591l-1.248,0.22c-0.654,-1.002 -1.432,-2.14 -2.335,-3.416c-0.902,-1.276 -1.522,-2.121 -1.858,-2.535c-2.688,-3.314 -6.705,-7.73 -12.051,-13.247c-5.346,-5.517 -11.009,-11.213 -16.989,-17.087c-3.625,-3.558 -7.363,-7.157 -11.213,-10.796c-0.5,-1.919 -1.003,-4.021 -1.508,-6.305c-0.506,-2.284 -0.973,-4.441 -1.403,-6.469c3.456,3.219 8.134,7.667 14.032,13.344c5.898,5.677 11.125,10.867 15.681,15.572c5.691,5.845 9.842,10.376 12.452,13.595Z" style="fill-rule:nonzero;"/><path d="M1372.879,605.127l-8.365,6.785c-4.908,3.98 -8.493,7.099 -10.756,9.357c-2.263,2.258 -3.084,3.769 -2.464,4.534c0.853,1.052 2.761,0.376 5.725,-2.028c1.307,-1.06 2.368,-1.868 3.185,-2.424c0.817,-0.557 2.632,-1.738 5.446,-3.545c1.685,-1.049 2.93,-1.663 3.736,-1.842c1.312,-0.272 2.446,0.182 3.402,1.361c4.833,5.959 6.388,11.883 4.666,17.771c-1.867,6.427 -7.723,13.634 -17.57,21.62c-6.852,5.557 -13.244,8.813 -19.178,9.77c-6.318,1.004 -11.338,-0.789 -15.06,-5.378c-2.998,-3.697 -5.157,-8.443 -6.478,-14.24c-0.482,-2.092 -1.151,-6.859 -2.009,-14.299l2.687,-0.595c0.469,3.054 0.941,6.078 1.416,9.074c1.027,4.979 2.445,8.583 4.254,10.814c3.179,3.92 7.635,5.245 13.368,3.976c5.464,-1.209 11.591,-4.567 18.378,-10.072c4.557,-3.696 8.288,-7.303 11.193,-10.821c3.572,-4.324 4.751,-7.235 3.536,-8.732c-0.439,-0.542 -1.008,-0.754 -1.706,-0.637c-0.698,0.117 -1.604,0.628 -2.72,1.532c-0.938,0.602 -2.368,1.591 -4.291,2.965c-1.923,1.375 -3.171,2.295 -3.745,2.76c-2.008,1.628 -3.655,2.528 -4.942,2.7c-1.287,0.172 -2.357,-0.268 -3.21,-1.319c-3.205,-3.952 -4.665,-8.129 -4.381,-12.534c0.258,-3.59 1.596,-7.185 4.013,-10.783c1.827,-2.697 4.08,-5.131 6.757,-7.302l8.365,-6.785l6.746,8.317Zm5.061,46.691l-1.111,7.716l-8.106,0.948l0.658,-7.983l8.56,-0.682Zm-9.895,8.025l-1.016,7.639l-8.298,1.103l0.801,-8.099l8.512,-0.643Z" style="fill-rule:nonzero;"/><path d="M1396.779,585.743l-27.247,22.098l-6.746,-8.317l23.757,-19.268c-3.05,-3.76 -5.822,-6.267 -8.317,-7.519c-1.717,-0.879 -4.817,-1.64 -9.301,-2.283l-2.591,-10.816c4.646,1.039 7.916,2.139 9.807,3.299c2.851,1.756 6.576,5.47 11.177,11.143l9.46,11.663Zm-39.599,-41.106l1.893,9.955l-11,2.265l-2.123,-9.848l11.23,-2.373Z" style="fill-rule:nonzero;"/><path d="M1420.68,566.358l-27.247,22.098l-6.746,-8.317l23.757,-19.268c-3.05,-3.76 -5.822,-6.267 -8.317,-7.519c-1.717,-0.879 -4.817,-1.64 -9.301,-2.283l-2.591,-10.816c4.646,1.039 7.916,2.139 9.807,3.299c2.851,1.756 6.576,5.47 11.177,11.143l9.46,11.663Zm-39.599,-41.106l1.893,9.955l-11,2.265l-2.123,-9.848l11.23,-2.373Z" style="fill-rule:nonzero;"/><path d="M1459.256,535.072l-41.922,34l-6.746,-8.317l36.377,-29.503c-4.97,-1.569 -9.904,-2.441 -14.801,-2.616c-4.897,-0.175 -10.959,0.264 -18.187,1.319l-0.376,2.761l-9.13,0.273c-3.32,-0.055 -5.354,-0.544 -6.104,-1.468c-4.446,-5.481 -6.596,-10.869 -6.452,-16.163c0.16,-4.884 2.352,-10.942 6.578,-18.173l9.215,-16.191l6.707,8.27l-7.277,11.449c-2.924,4.537 -5.173,8.343 -6.748,11.416c-2.012,3.903 -2.72,6.221 -2.126,6.954c0.594,0.733 2.532,1.037 5.812,0.913c2.05,-0.078 4.116,-0.169 6.198,-0.272c7.816,-0.264 15.153,0.152 22.011,1.246c7.377,1.149 14.119,3.077 20.224,5.786l6.746,8.317Z" style="fill-rule:nonzero;"/><path d="M1497.831,503.785l-4.971,4.032c-2.135,1.732 -4.929,3.205 -8.381,4.42c-3.996,1.392 -7.961,2.072 -11.896,2.041c-0.013,3.762 -0.628,6.863 -1.846,9.303c-1.217,2.44 -3.674,5.159 -7.371,8.157l-7.457,6.048l-6.746,-8.317l7.314,-5.932c2.9,-2.352 4.887,-5.178 5.96,-8.479c0.822,-2.569 1.11,-5.47 0.864,-8.705c-0.331,-4.381 0.082,-8.757 1.239,-13.129c1.05,-3.916 2.436,-6.995 4.158,-9.236c4.913,1.563 9.108,3.153 12.585,4.77c4.699,2.211 7.966,4.448 9.801,6.711l6.746,8.317Zm-13.135,-4.958c-1.913,-1.512 -4.024,-2.812 -6.332,-3.899c-1.948,-0.903 -4.173,-1.661 -6.676,-2.272c-1.219,1.623 -1.929,3.387 -2.127,5.291c-0.158,1.238 -0.069,3.041 0.267,5.41c2.155,0.312 4.677,0.116 7.566,-0.589c2.889,-0.705 5.347,-1.696 7.377,-2.972l-0.074,-0.97Z" style="fill-rule:nonzero;"/><path d="M1521.732,484.401l-27.247,22.098l-6.746,-8.317l23.757,-19.268c-3.05,-3.76 -5.822,-6.267 -8.317,-7.519c-1.717,-0.879 -4.817,-1.64 -9.301,-2.283l-2.591,-10.816c4.646,1.039 7.916,2.139 9.807,3.299c2.851,1.756 6.576,5.47 11.177,11.143l9.46,11.663Zm7.246,9.814l2.084,9.8l-11.096,2.343l-1.989,-9.878l11,-2.265Zm-7.293,13.285l1.959,9.743l-11.183,2.334l-1.854,-9.907l11.078,-2.17Z" style="fill-rule:nonzero;"/><path d="M1593.693,416.21c4.135,5.099 6.223,10.115 6.262,15.049c0.01,4.377 -1.591,8.819 -4.803,13.326c-2.73,3.799 -6.788,7.883 -12.173,12.251c-6.15,4.988 -11.832,7.721 -17.045,8.198c-5.713,0.512 -10.572,-1.701 -14.578,-6.64c-2.223,-2.741 -4.138,-5.916 -5.745,-9.526c-1.373,-3.06 -2.589,-6.644 -3.648,-10.751c-0.77,-2.968 -1.551,-6.667 -2.343,-11.096l2.266,-0.332c0.553,3.091 1.115,5.805 1.689,8.14c0.783,3.116 1.644,5.772 2.581,7.97c1.152,2.658 2.555,5.007 4.209,7.046c3.179,3.92 7.009,5.727 11.489,5.421c4.48,-0.306 9.254,-2.513 14.321,-6.623c5.386,-4.368 9.623,-9.337 12.713,-14.907c3.381,-6.123 3.921,-10.603 1.621,-13.439c-2.507,-3.091 -7.253,-7.933 -14.237,-14.525c-5.365,-5.052 -11.449,-10.631 -18.25,-16.737l-9.099,-7.994l-3.129,0.636c-3.463,-4.27 -5.74,-8.869 -6.831,-13.796l0.813,-0.659c1.11,1.108 2.063,1.827 2.86,2.158c0.797,0.331 1.678,0.343 2.644,0.035c1.324,-0.387 2.808,-0.772 4.452,-1.154c1.196,-0.284 2.243,-0.524 3.138,-0.723c1.809,2.231 3.048,3.921 3.715,5.07c0.668,1.149 1.512,2.841 2.533,5.077l-3.423,1.349c0.632,0.649 3.692,3.477 9.179,8.484c6.39,5.859 11.504,10.666 15.342,14.421c6.141,6.008 10.633,10.765 13.476,14.27Z" style="fill-rule:nonzero;"/><path d="M1629.616,383.509c1.499,1.848 2.593,4.369 3.28,7.562c0.747,3.462 0.5,5.697 -0.743,6.705c-1.307,1.06 -4.416,2.208 -9.33,3.446c-4.523,1.133 -8.51,1.883 -11.962,2.253c-1.991,5.101 -3.585,8.64 -4.783,10.615c-1.515,2.497 -3.722,4.921 -6.622,7.273l-4.302,3.489l-6.746,-8.317l4.302,-3.489c1.307,-1.06 2.481,-2.184 3.524,-3.373c1.043,-1.189 2.38,-2.895 4.012,-5.117c-1.32,0.067 -2.652,0.117 -3.998,0.152c-1.538,-0.073 -2.618,-0.492 -3.238,-1.257c-0.439,-0.542 -0.739,-0.959 -0.898,-1.253c-0.159,-0.294 -0.332,-0.946 -0.518,-1.957l-1.975,-12.108c-0.267,-1.632 -0.312,-2.877 -0.136,-3.733c0.177,-0.857 0.624,-1.787 1.341,-2.792c-3.414,0.286 -5.379,0.11 -5.896,-0.528c-0.517,-0.637 -1.147,-2.847 -1.89,-6.629c-0.246,-1.28 -0.585,-3.197 -1.019,-5.751c3.616,0.29 8.469,1.029 14.558,2.219c7.693,1.474 14.157,3.125 19.392,4.955c6.924,2.414 11.472,4.96 13.643,7.637Zm-25.239,3.274c-1.111,-1.37 -2.277,-2.221 -3.497,-2.553c-1.445,-0.413 -2.9,-0.025 -4.366,1.163c-1.466,1.189 -2.442,2.786 -2.928,4.792c-0.486,2.006 -0.174,3.694 0.937,5.064c1.06,1.307 4.399,1.451 10.019,0.433c0.647,-2.004 0.969,-3.691 0.966,-5.062c0.021,-1.602 -0.356,-2.881 -1.131,-3.837Zm20.398,1.603c-0.905,-1.115 -3.206,-2.128 -6.903,-3.039c-2.33,-0.593 -4.993,-1.075 -7.988,-1.446c1.266,1.562 2.122,3.284 2.567,5.169c0.445,1.884 0.375,3.671 -0.209,5.36c2.713,-0.563 5.43,-1.155 8.149,-1.775c2.162,-0.591 3.578,-1.158 4.247,-1.701c0.382,-0.31 0.585,-0.712 0.607,-1.206c0.022,-0.494 -0.135,-0.948 -0.471,-1.362Z" style="fill-rule:nonzero;"/></g><g><path d="M340.854,415.838c-5.496,6.632 -11.487,9.896 -17.971,9.79c-6.979,-0.115 -15.138,-4.041 -24.477,-11.781c-5.948,-4.93 -9.636,-9.742 -11.063,-14.436c-1.552,-5.149 -0.369,-10.088 3.55,-14.817c2.12,-2.558 4.576,-4.887 7.37,-6.986c2.794,-2.1 5.823,-4.029 9.087,-5.789c1.985,-1.064 5.161,-2.596 9.528,-4.596l1.119,2.282c-5.631,2.557 -9.804,4.793 -12.519,6.707c-2.715,1.914 -4.923,3.897 -6.623,5.949c-3.056,3.688 -4.063,7.582 -3.021,11.681c1.042,4.1 4.002,8.171 8.88,12.213c5.621,4.658 11.429,7.791 17.422,9.396c7.429,1.993 12.98,0.773 16.652,-3.658c2.514,-3.034 4.409,-6.229 5.686,-9.586c1.149,-2.961 1.725,-5.895 1.727,-8.803l11.282,-6.077c-0.42,3.715 -1.368,7.069 -2.844,10.06c-1.476,2.991 -3.926,6.554 -7.352,10.688l-6.433,7.763Z" style="fill-rule:nonzero;"/><path d="M382.555,445.881c-4.067,4.907 -9.923,8.282 -17.569,10.122c-8.531,2.061 -15.443,0.898 -20.737,-3.49c-1.963,-1.627 -3.801,-3.526 -5.513,-5.697c-1.246,-1.584 -2.755,-3.788 -4.529,-6.612c-1.366,-2.286 -2.745,-4.557 -4.136,-6.814l2.052,-0.933c1.345,1.767 2.754,3.624 4.225,5.571c1.472,1.947 2.936,3.524 4.394,4.732c3.628,3.007 7.828,4.932 12.598,5.774c3.736,0.638 8.014,0.621 12.834,-0.05c2.437,-0.338 6.137,-1.11 11.099,-2.315c-4.015,-3.327 -6.489,-6.456 -7.422,-9.387c-1.053,-3.331 -0.199,-6.661 2.562,-9.992c2.539,-3.063 5.606,-5.312 9.203,-6.746c4.18,-1.653 7.548,-1.42 10.106,0.699c2.588,2.144 3.202,5.187 1.842,9.127c-1.055,3.089 -3.32,6.73 -6.795,10.924l-4.215,5.086Zm1.219,-7.192c1.712,-3.397 2.563,-6.028 2.553,-7.893c-0.014,-1.617 -0.601,-2.906 -1.761,-3.868c-0.833,-0.69 -1.782,-1.013 -2.848,-0.968c-1.066,0.045 -1.944,0.484 -2.634,1.317c-1.208,1.457 -1.472,3.107 -0.791,4.95c0.68,1.843 2.507,3.997 5.481,6.462Z" style="fill-rule:nonzero;"/><path d="M402.643,467.044l-25.429,-21.074l6.433,-7.763l22.172,18.375c2.884,-3.48 4.686,-6.502 5.406,-9.065c0.519,-1.777 0.65,-4.779 0.391,-9.007l9.506,-4.388c-0.102,4.481 -0.513,7.702 -1.235,9.662c-1.095,2.956 -3.836,7.08 -8.223,12.374l-9.021,10.885Zm-23.978,15.949c-0.937,1.13 -2.115,1.734 -3.534,1.812c-1.419,0.078 -2.694,-0.351 -3.824,-1.288c-1.666,-1.38 -2.311,-3.295 -1.937,-5.744c0.355,-2.063 1.273,-3.987 2.751,-5.772c3.574,-4.313 8.663,-6.216 15.267,-5.709l-0.313,2.375c-4.915,0.241 -8.063,1.194 -9.444,2.86c-0.69,0.833 -0.272,2.446 1.256,4.841c1.527,2.395 1.453,4.603 -0.223,6.625Z" style="fill-rule:nonzero;"/><path d="M448.995,505.457l-6.246,-5.176c-2.022,-1.676 -2.966,-3.837 -2.829,-6.484c0.112,-2.315 1.064,-5.113 2.856,-8.395c1.791,-3.281 4.251,-7.112 7.38,-11.493c2.607,-3.509 5.28,-7.113 8.02,-10.812c2.74,-3.699 4.711,-6.593 5.915,-8.681c1.204,-2.088 2.018,-3.934 2.444,-5.537c0.529,-1.97 0.657,-3.971 0.384,-6.003l12.66,-4.107c-1.798,4.53 -4.517,9.476 -8.157,14.837c-2.266,3.34 -8.032,10.903 -17.298,22.689c-3.852,5.738 -5.888,9.769 -6.11,12.094c-0.202,1.939 0.187,3.316 1.169,4.129l6.246,5.176l-6.433,7.763Z" style="fill-rule:nonzero;"/><path d="M471.302,523.943l-25.429,-21.074l6.433,-7.763l22.172,18.375c2.908,-3.51 4.71,-6.531 5.406,-9.065c0.495,-1.747 0.625,-4.75 0.391,-9.007l9.506,-4.388c-0.102,4.481 -0.513,7.702 -1.235,9.662c-1.095,2.956 -3.836,7.08 -8.223,12.374l-9.021,10.885Zm36.26,-44.299l-8.662,3.733l-4.211,-9.811l8.751,-3.659l4.122,9.737Zm-13.61,-4.281l-8.633,3.607l-4.219,-9.892l8.804,-3.54l4.048,9.826Z" style="fill-rule:nonzero;"/><path d="M515.477,536.471c-0.007,2.854 0.19,5.4 0.592,7.64c0.557,3.02 1.505,5.085 2.843,6.194l5.844,4.843l-6.433,7.763l-5.487,-4.547c-2.439,-2.021 -3.961,-5.39 -4.568,-10.107c-0.298,-2.304 -0.358,-6.016 -0.179,-11.135c0.095,-3.081 0.14,-4.951 0.133,-5.609c-0.004,-1.508 -0.161,-3.62 -0.47,-6.334c-4.387,5.294 -9.464,8.06 -15.23,8.298c-6.177,0.249 -12.76,-2.522 -19.749,-8.314l-4.595,-3.808l6.433,-7.763l4.818,3.993c4.729,3.919 9.205,6.6 13.427,8.042c5.044,1.722 8.663,1.26 10.857,-1.387c1.651,-1.993 2.315,-4.277 1.992,-6.853c-0.152,-1.33 -0.83,-3.447 -2.035,-6.352l-2.618,0.163l-1.937,-8.378c-0.562,-3.075 -0.486,-5.043 0.229,-5.906c4.239,-5.116 8.816,-8.096 13.73,-8.94c4.538,-0.754 10.535,0.152 17.99,2.718l16.648,5.519l-6.396,7.718l-11.912,-4.604c-4.728,-1.862 -8.656,-3.236 -11.785,-4.122c-3.975,-1.137 -6.245,-1.363 -6.812,-0.679c-0.567,0.684 -0.49,2.529 0.23,5.534c0.45,1.878 0.915,3.769 1.395,5.671c0.966,4.162 1.704,8.084 2.213,11.767c0.434,3.169 0.7,6.299 0.797,9.39c0.07,1.914 0.081,5.109 0.034,9.585Z" style="fill-rule:nonzero;"/><path d="M566.817,603.099l-3.435,-2.847c-1.903,-1.577 -3.324,-3.193 -4.26,-4.848c-0.937,-1.654 -1.576,-3.426 -1.917,-5.314c-2.31,-0.058 -4.133,-0.34 -5.47,-0.846c-1.96,-0.722 -4.264,-2.179 -6.911,-4.373l-2.9,-2.403c-1.547,-1.282 -2.847,-2.861 -3.9,-4.737c-0.691,-1.225 -1.41,-2.899 -2.158,-5.024c-2.315,-0.112 -4.234,-0.461 -5.756,-1.045c-1.522,-0.584 -3.622,-1.986 -6.299,-4.204l-8.61,-7.136l6.433,-7.763l8.61,7.136c2.409,1.996 4.307,3.218 5.693,3.664c2.292,0.746 4.288,0.092 5.989,-1.96c0.715,-0.863 1.385,-1.762 2.011,-2.698c0.626,-0.936 1.263,-2.039 1.912,-3.307l4.047,-1.161c-1.435,3.426 -2.402,5.986 -2.902,7.679c-0.848,2.96 -1.162,5.458 -0.944,7.495c0.259,2.472 1.34,4.497 3.244,6.074l2.989,2.477c2.231,1.849 4.165,2.874 5.802,3.078c1.831,0.213 3.448,-0.529 4.853,-2.224c0.764,-0.922 1.444,-1.864 2.04,-2.825c0.596,-0.961 1.209,-2.034 1.838,-3.217l4.092,-1.124l-2.538,4.97c-1.933,3.967 -2.849,7.07 -2.749,9.31c0.075,1.968 0.974,3.667 2.699,5.097c0.803,0.665 1.653,0.956 2.551,0.872c0.897,-0.084 1.667,-0.513 2.307,-1.286c1.38,-1.666 2.225,-3.926 2.534,-6.78c0.038,-0.47 0.111,-2.04 0.217,-4.711l6.93,-2.46c-0.309,2.855 -0.795,5.136 -1.458,6.844c-1.022,2.565 -2.925,5.527 -5.71,8.888l-8.873,10.707Z" style="fill-rule:nonzero;"/><path d="M640.249,663.954c-5.496,6.632 -11.487,9.896 -17.971,9.79c-6.979,-0.115 -15.138,-4.041 -24.477,-11.781c-5.948,-4.93 -9.636,-9.742 -11.063,-14.436c-1.552,-5.149 -0.369,-10.088 3.55,-14.817c2.12,-2.558 4.576,-4.887 7.37,-6.986c2.794,-2.1 5.823,-4.029 9.087,-5.789c1.985,-1.064 5.161,-2.596 9.528,-4.596l1.119,2.282c-5.631,2.557 -9.804,4.793 -12.519,6.707c-2.715,1.914 -4.923,3.897 -6.623,5.949c-3.056,3.688 -4.063,7.582 -3.021,11.681c1.042,4.1 4.002,8.171 8.88,12.213c5.621,4.658 11.429,7.791 17.422,9.396c7.429,1.993 12.98,0.773 16.652,-3.658c2.514,-3.034 4.409,-6.229 5.686,-9.586c1.149,-2.961 1.725,-5.895 1.727,-8.803l11.282,-6.077c-0.42,3.715 -1.368,7.069 -2.844,10.06c-1.476,2.991 -3.926,6.554 -7.352,10.688l-6.433,7.763Zm11.903,-47.779l-8.841,3.585l-4.122,-9.737l8.699,-3.778l4.263,9.929Z" style="fill-rule:nonzero;"/><path d="M688.743,704.142l-3.435,-2.847c-1.903,-1.577 -3.324,-3.193 -4.26,-4.848c-0.937,-1.654 -1.576,-3.426 -1.917,-5.314c-2.31,-0.058 -4.133,-0.34 -5.47,-0.846c-1.96,-0.722 -4.264,-2.179 -6.911,-4.373l-2.9,-2.403c-1.547,-1.282 -2.847,-2.861 -3.9,-4.737c-0.691,-1.225 -1.41,-2.899 -2.158,-5.024c-2.315,-0.112 -4.234,-0.461 -5.756,-1.045c-1.522,-0.584 -3.622,-1.986 -6.299,-4.204l-8.61,-7.136l6.433,-7.763l8.61,7.136c2.409,1.996 4.307,3.218 5.693,3.664c2.292,0.746 4.288,0.092 5.989,-1.96c0.715,-0.863 1.385,-1.762 2.011,-2.698c0.626,-0.936 1.263,-2.039 1.912,-3.307l4.047,-1.161c-1.435,3.426 -2.402,5.986 -2.902,7.679c-0.848,2.96 -1.162,5.458 -0.944,7.495c0.259,2.472 1.34,4.497 3.244,6.074l2.989,2.477c2.231,1.849 4.165,2.874 5.802,3.078c1.831,0.213 3.448,-0.529 4.853,-2.224c0.764,-0.922 1.444,-1.864 2.04,-2.825c0.596,-0.961 1.209,-2.034 1.838,-3.217l4.092,-1.124l-2.538,4.97c-1.933,3.967 -2.849,7.07 -2.749,9.31c0.075,1.968 0.974,3.667 2.699,5.097c0.803,0.665 1.653,0.956 2.551,0.872c0.897,-0.084 1.667,-0.513 2.307,-1.286c1.38,-1.666 2.225,-3.926 2.534,-6.78c0.038,-0.47 0.111,-2.04 0.217,-4.711l6.93,-2.46c-0.309,2.855 -0.795,5.136 -1.458,6.844c-1.022,2.565 -2.925,5.527 -5.71,8.888l-8.873,10.707Z" style="fill-rule:nonzero;"/><path d="M762.176,764.997c-5.496,6.632 -11.487,9.896 -17.971,9.79c-6.979,-0.115 -15.138,-4.041 -24.477,-11.781c-5.948,-4.93 -9.636,-9.742 -11.063,-14.436c-1.552,-5.149 -0.369,-10.088 3.55,-14.817c2.12,-2.558 4.576,-4.887 7.37,-6.986c2.794,-2.1 5.823,-4.029 9.087,-5.789c1.985,-1.064 5.161,-2.596 9.528,-4.596l1.119,2.282c-5.631,2.557 -9.804,4.793 -12.519,6.707c-2.715,1.914 -4.923,3.897 -6.623,5.949c-3.056,3.688 -4.063,7.582 -3.021,11.681c1.042,4.1 4.002,8.171 8.88,12.213c5.621,4.658 11.429,7.791 17.422,9.396c7.429,1.993 12.98,0.773 16.652,-3.658c2.514,-3.034 4.409,-6.229 5.686,-9.586c1.149,-2.961 1.725,-5.895 1.727,-8.803l11.282,-6.077c-0.42,3.715 -1.368,7.069 -2.844,10.06c-1.476,2.991 -3.926,6.554 -7.352,10.688l-6.433,7.763Z" style="fill-rule:nonzero;"/><path d="M784.482,783.483l-25.429,-21.074l6.433,-7.763l22.172,18.375c2.908,-3.51 4.71,-6.531 5.406,-9.065c0.495,-1.747 0.625,-4.75 0.391,-9.007l9.506,-4.388c-0.102,4.481 -0.513,7.702 -1.235,9.662c-1.095,2.956 -3.836,7.08 -8.223,12.374l-9.021,10.885Zm-7.722,8.501l-8.662,3.733l-4.211,-9.811l8.751,-3.659l4.122,9.737Zm-13.61,-4.281l-8.633,3.607l-4.219,-9.892l8.804,-3.54l4.048,9.826Z" style="fill-rule:nonzero;"/><path d="M820.484,813.319l-4.64,-3.845c-1.993,-1.651 -3.868,-3.958 -5.627,-6.921c-2.022,-3.432 -3.382,-6.967 -4.079,-10.605c-3.475,0.682 -6.451,0.687 -8.928,0.013c-2.477,-0.673 -5.441,-2.439 -8.891,-5.299l-6.96,-5.768l6.433,-7.763l6.826,5.657c2.706,2.243 5.682,3.555 8.928,3.937c2.523,0.285 5.255,0.015 8.195,-0.809c3.983,-1.114 8.099,-1.54 12.349,-1.28c3.809,0.247 6.907,0.958 9.294,2.133c-0.536,4.824 -1.229,8.99 -2.08,12.499c-1.174,4.746 -2.636,8.175 -4.386,10.287l-6.433,7.763Zm2.153,-13.04c1.043,-2.045 1.853,-4.234 2.43,-6.565c0.474,-1.965 0.763,-4.159 0.865,-6.583c-1.723,-0.826 -3.482,-1.155 -5.277,-0.987c-1.172,0.082 -2.82,0.497 -4.945,1.245c0.109,2.047 0.756,4.339 1.94,6.875c1.184,2.536 2.552,4.624 4.105,6.261l0.882,-0.247Z" style="fill-rule:nonzero;"/><path d="M866.837,851.732l-6.246,-5.176c-2.022,-1.676 -2.966,-3.837 -2.829,-6.484c0.112,-2.315 1.064,-5.113 2.856,-8.395c1.791,-3.281 4.251,-7.112 7.38,-11.493c2.607,-3.509 5.28,-7.113 8.02,-10.812c2.74,-3.699 4.711,-6.593 5.915,-8.681c1.204,-2.088 2.018,-3.934 2.444,-5.537c0.529,-1.97 0.657,-3.971 0.384,-6.003l12.66,-4.107c-1.798,4.53 -4.517,9.476 -8.157,14.837c-2.266,3.34 -8.032,10.903 -17.298,22.689c-3.852,5.738 -5.888,9.769 -6.11,12.094c-0.202,1.939 0.187,3.316 1.169,4.129l6.246,5.176l-6.433,7.763Z" style="fill-rule:nonzero;"/><path d="M889.143,870.218l-25.429,-21.074l6.433,-7.763l22.172,18.375c2.908,-3.51 4.71,-6.531 5.406,-9.065c0.495,-1.747 0.625,-4.75 0.391,-9.007l9.506,-4.388c-0.102,4.481 -0.513,7.702 -1.235,9.662c-1.095,2.956 -3.836,7.08 -8.223,12.374l-9.021,10.885Zm-7.722,8.501l-8.662,3.733l-4.211,-9.811l8.751,-3.659l4.122,9.737Zm-13.61,-4.281l-8.633,3.607l-4.219,-9.892l8.804,-3.54l4.048,9.826Z" style="fill-rule:nonzero;"/><path d="M925.146,900.054l-39.125,-32.424l6.433,-7.763l33.95,28.135c0.531,-4.878 0.425,-9.593 -0.317,-14.146c-0.742,-4.553 -2.267,-10.068 -4.574,-16.546l-2.618,0.163l-1.937,-8.378c-0.562,-3.075 -0.486,-5.043 0.229,-5.906c4.239,-5.116 8.816,-8.096 13.73,-8.94c4.538,-0.754 10.535,0.152 17.99,2.718l16.648,5.519l-6.396,7.718l-11.912,-4.604c-4.728,-1.862 -8.656,-3.236 -11.785,-4.122c-3.975,-1.137 -6.245,-1.363 -6.812,-0.679c-0.567,0.684 -0.49,2.529 0.23,5.534c0.45,1.878 0.915,3.769 1.395,5.671c1.686,7.167 2.657,14.016 2.912,20.549c0.301,7.022 -0.235,13.601 -1.608,19.738l-6.433,7.763Z" style="fill-rule:nonzero;"/></g></svg>